<svg id="boat" xmlns="http://www.w3.org/2000/svg" width="25.135" height="18.43" viewBox="0 0 25.135 18.43">
  <g id="Group_174" data-name="Group 174">
    <path id="Path_80" data-name="Path 80" d="M857.418,753.572c2.716,0,5.432,0,8.148,0a1.245,1.245,0,0,0,.955-.389q3.231-3.249,6.478-6.483a.82.82,0,0,0,.1-1.222,1.023,1.023,0,0,0-.618-.273c-2.235-.019-4.47-.011-6.7-.012a.9.9,0,0,0-.686.338c-.857.941-1.72,1.877-2.572,2.822a.526.526,0,0,1-.439.187q-6.436-.006-12.872,0c-.709,0-1.014.306-1.014,1.014q0,1.527,0,3.054a.86.86,0,0,0,.959.961Q853.288,753.574,857.418,753.572Z" transform="translate(-848.197 -735.146)" fill="#ec6f2d"/>
    <path id="Path_81" data-name="Path 81" d="M868.337,742.425c-.745,0-1.49,0-2.234,0a2.572,2.572,0,0,0-1.983.863c-.7.763-1.416,1.515-2.114,2.281a.592.592,0,0,1-.488.209q-5.923-.008-11.848,0c-.1,0-.2-.009-.311-.014a.935.935,0,0,1,.031-.14q1.211-3.01,2.428-6.019a.8.8,0,0,1,.8-.522q6.672,0,13.346.009a.829.829,0,0,1,.6.243c.715,1,1.393,2.024,2.118,3.093Zm-10.023.836a.827.827,0,0,0,.788-.778.8.8,0,0,0-.708-.871,5.5,5.5,0,0,0-1.1,0,.788.788,0,0,0-.691.856.824.824,0,0,0,.776.788c.159.011.32,0,.481,0S858.164,743.27,858.313,743.261Zm3.414,0a.829.829,0,0,0,.792-.8.793.793,0,0,0-.708-.843,5.5,5.5,0,0,0-1.1,0,.806.806,0,0,0-.7.854.841.841,0,0,0,.782.79c.159.011.32,0,.48,0S861.577,743.27,861.727,743.261Zm-6.837,0a.84.84,0,0,0,.8-.8.806.806,0,0,0-.709-.847,5.511,5.511,0,0,0-1.1,0,.8.8,0,0,0-.7.85.839.839,0,0,0,.8.8c.141.007.283,0,.424,0C854.57,743.263,854.731,743.27,854.891,743.261Z" transform="translate(-848.405 -734.053)" fill="#ec6f2d"/>
    <path id="Path_82" data-name="Path 82" d="M864.617,736.29c-.338-.493-.625-.968-.974-1.392a1.009,1.009,0,0,0-.6-.246,6.24,6.24,0,0,0-.883-.011c0-.264,0-.506,0-.747a.847.847,0,1,0-1.685.007c0,.234,0,.468,0,.721H858.6c0-.261,0-.513,0-.765a.843.843,0,1,0-1.684,0c0,.252,0,.5,0,.788-.4,0-.778,0-1.152,0a.847.847,0,0,0-.933.926c0,.233,0,.467,0,.722Z" transform="translate(-849.382 -732.96)" fill="#ec6f2d"/>
  </g>
</svg>
