<svg xmlns="http://www.w3.org/2000/svg" width="35.816" height="39.723" viewBox="0 0 35.816 39.723">
  <g id="costa-logo" opacity="0.65">
    <g id="Group_196" data-name="Group 196">
      <path id="Path_125" data-name="Path 125" d="M617.809,1079.495c-5.187,2.2-13.808,1.261-18.2-4.38-2.282-2.931-2.419-6.245-1.709-9.66,1.8-8.657,8.129-14.764,16.9-15.9,7.479-.968,13.6,1.8,18.31,7.7.361.453.269.678-.172.985q-3.345,2.319-6.651,4.694c-.5.357-.719.239-1.089-.192-2.779-3.235-6.306-4.51-10.432-3.429a9.869,9.869,0,0,0-7.564,8.347,10.275,10.275,0,0,0,9.761,11.837C617.247,1079.5,617.528,1079.495,617.809,1079.495Z" transform="translate(-597.52 -1049.367)" fill="#070606"/>
      <path id="Path_126" data-name="Path 126" d="M600.039,1083.783a21.928,21.928,0,0,0,6.193,3.349,19.912,19.912,0,0,0,12.358.124,12.563,12.563,0,0,0,7.012-5.636c.4-.651.646-.807,1.324-.3,2.066,1.528,4.176,3,6.3,4.442.635.429.639.7.187,1.294a19.767,19.767,0,0,1-32.814-2.272Z" transform="translate(-597.97 -1055.022)" fill="#070606"/>
    </g>
  </g>
</svg>
