<svg xmlns="http://www.w3.org/2000/svg" width="60.17" height="25.827" viewBox="0 0 60.17 25.827">
  <g id="disney-cruise-line-logo" opacity="0.65">
    <g id="Group_202" data-name="Group 202">
      <path id="Path_131" data-name="Path 131" d="M761.682,1071.349a11.582,11.582,0,0,1-1.731-.013,3.14,3.14,0,0,1-2.76-3.384,4.117,4.117,0,0,1,5.2-3.7,3.178,3.178,0,0,1,2.19,3.454c-.035.255-.089.508-.135.77a6.524,6.524,0,0,1,5.4.02c-.029-.2-.042-.344-.074-.489a3.206,3.206,0,0,1,3.119-3.905,4.29,4.29,0,0,1,4.078,2.9,3.317,3.317,0,0,1-3.857,4.33c-.15-.027-.3-.058-.533-.1a6.026,6.026,0,0,1,.339,4.486,5.959,5.959,0,0,1-2.8,3.443,6.044,6.044,0,0,1-8.44-7.812Z" transform="translate(-736.413 -1058.944)"/>
      <path id="Path_132" data-name="Path 132" d="M795.1,1079.689a4.831,4.831,0,0,1-.6-.313,12.375,12.375,0,0,0-3.593-1.889,15.659,15.659,0,0,0-2.711-.531c-3.051-.342-5.776.735-8.425,2.058-2.858,1.429-5.69,2.91-8.55,4.336a28.506,28.506,0,0,1-8.494,2.816,15.475,15.475,0,0,1-10.152-1.571,10.621,10.621,0,0,1-3.167-2.673,1.878,1.878,0,0,1-.236-.342c-.034-.072-.042-.217,0-.247a.331.331,0,0,1,.281-.044,3.4,3.4,0,0,1,.6.338c2.493,1.786,5.188,1.781,7.953.842,1.165-.4,2.285-.931,3.418-1.418a.675.675,0,0,1,.727.039,6.514,6.514,0,0,0,10.005-4.383,1.421,1.421,0,0,1,.974-1.2,25.944,25.944,0,0,1,6.835-2.109,15.537,15.537,0,0,1,10.665,1.93,16.494,16.494,0,0,1,4.127,3.316C795.143,1079.1,795.2,1079.262,795.1,1079.689Z" transform="translate(-734.976 -1060.571)"/>
      <path id="Path_133" data-name="Path 133" d="M777.883,1064.327c-.4-.241-.816-.469-1.21-.726a12.189,12.189,0,0,0-4.634-1.911,12.68,12.68,0,0,0-7.33.981c-1.284.565-2.543,1.188-3.8,1.805-.263.129-.4.121-.548-.15a3.624,3.624,0,0,0-2.946-1.963,4.75,4.75,0,0,0-5.2,5.516c.178.888.182.9-.672,1.227a25.011,25.011,0,0,1-8.492,1.907,13.753,13.753,0,0,1-9.158-2.762,17.283,17.283,0,0,1-1.705-1.693,2.31,2.31,0,0,1-.292-.527l.111-.135c.185.07.377.126.553.213a21.687,21.687,0,0,0,2.691,1.32,8.358,8.358,0,0,0,5.318-.238,61.5,61.5,0,0,0,6.94-3.062c3.325-1.557,6.622-3.181,10-4.605a19.035,19.035,0,0,1,10.783-1.445,16.08,16.08,0,0,1,9.343,5.347,4.32,4.32,0,0,1,.438.737Z" transform="translate(-731.894 -1057.825)"/>
      <path id="Path_134" data-name="Path 134" d="M757.727,1073.578c-.044.347-.08.668-.128.985a6.537,6.537,0,0,0,.474,3.581c.216.508.2.543-.326.706a21.082,21.082,0,0,1-8.443,1.071,13.242,13.242,0,0,1-6.479-2.286,22.806,22.806,0,0,1-2.273-2.1.449.449,0,0,1-.131-.189,4.292,4.292,0,0,1-.082-.423,1.232,1.232,0,0,1,.421.058c.364.2.708.438,1.062.656a7.691,7.691,0,0,0,6.955.545c1.926-.694,3.776-1.594,5.661-2.4a2.225,2.225,0,0,0,.206-.105,1.919,1.919,0,0,1,1.832-.247A4.57,4.57,0,0,0,757.727,1073.578Z" transform="translate(-733.403 -1060.588)"/>
      <path id="Path_135" data-name="Path 135" d="M781.986,1069.619a13.553,13.553,0,0,0-.135-2.139,13.778,13.778,0,0,0-.772-2.017,2.124,2.124,0,0,1,.446-.072,15.77,15.77,0,0,1,9.546,3.526c.793.627,1.492,1.372,2.23,2.068a.824.824,0,0,1,.218.3,2.739,2.739,0,0,1,.09.469,1.3,1.3,0,0,1-.462-.068c-.637-.375-1.247-.8-1.891-1.161a11.747,11.747,0,0,0-8.83-1C782.267,1069.563,782.109,1069.593,781.986,1069.619Z" transform="translate(-740.682 -1059.177)"/>
    </g>
  </g>
</svg>
