<svg xmlns="http://www.w3.org/2000/svg" width="41.897" height="41.888" viewBox="0 0 41.897 41.888">
  <g id="msc-logo" opacity="0.65">
    <g id="Group_194" data-name="Group 194">
      <path id="Path_93" data-name="Path 93" d="M904.93,1071.15A10.435,10.435,0,1,1,915.4,1081.64,10.386,10.386,0,0,1,904.93,1071.15Zm1.744.044a8.692,8.692,0,1,0,8.649-8.689A8.666,8.666,0,0,0,906.674,1071.194Zm3.864,9.1c.281-.356.577-.566.57-.766s-.306-.4-.477-.607c-.212.182-.541.336-.6.559C909.988,1079.655,910.284,1079.915,910.537,1080.3Zm15.192-9.081c-.364-.277-.578-.566-.771-.553s-.394.314-.591.49c.187.208.343.525.57.587C925.1,1071.786,925.351,1071.482,925.729,1071.218Zm-19.937-.836c-.267.378-.568.622-.532.8.044.228.36.4.558.6.178-.2.48-.381.5-.592S906.055,1070.763,905.792,1070.382Zm14.344,8.3c-.261.37-.5.568-.54.8a.452.452,0,0,0,.563.546.815.815,0,0,0,.522-.553C920.7,1079.275,920.409,1079.052,920.137,1078.679Zm-9.573-16.574c-.26.365-.557.6-.523.776.044.227.348.4.541.6.189-.2.5-.383.531-.608C911.142,1062.7,910.838,1062.467,910.564,1062.105Zm9.563,1.615c.277-.36.572-.578.558-.774a.809.809,0,0,0-.5-.572.468.468,0,0,0-.582.54C919.631,1063.145,919.872,1063.348,920.127,1063.72Z" transform="translate(-894.489 -1050.322)" fill="#070606"/>
      <path id="Path_94" data-name="Path 94" d="M924.762,1061.19c-.387-.144-.485-.394-.428-.815.229-1.693.414-3.391.631-5.213-1.045.782-1.992,1.49-2.937,2.2-.406.3-.823.6-1.206.925a.949.949,0,0,1-.906.176,1.021,1.021,0,0,1-.869-.908c-.608-2.378-1.249-4.747-1.88-7.118-.033-.125-.08-.246-.17-.516-.451,1.69-.863,3.236-1.274,4.782-.281,1.054-.568,2.108-.835,3.166-.089.351-.249.549-.685.466l2.751-10.262.111-.024,2.769,10.335,5.729-4.273-.814,7.1Z" transform="translate(-896.146 -1048.048)" fill="#070606"/>
      <path id="Path_95" data-name="Path 95" d="M905.387,1063.911a.858.858,0,0,1-.941.367c-1.659-.231-3.325-.408-5.1-.619.411.563.766,1.057,1.129,1.544.665.891,1.354,1.766,1.99,2.676a1.349,1.349,0,0,1,.149.788c-.027.561-.384.775-.92.911-2.493.628-4.972,1.305-7.575,2a4.05,4.05,0,0,0,.4.166c2.5.671,5.009,1.331,7.508,2.02.223.062.4.3.6.455l-.117.2-10.277-2.747-.012-.117,10.322-2.766-4.289-5.754,7.15.9Z" transform="translate(-892.218 -1050.725)" fill="#070606"/>
      <path id="Path_96" data-name="Path 96" d="M930.352,1070.152a1.385,1.385,0,0,1,.385-.009c3.349.885,6.695,1.778,10.191,2.709-.265.088-.4.139-.531.176q-4.709,1.268-9.421,2.53a4.209,4.209,0,0,1-.623.073h0a1.027,1.027,0,0,1,.858-.7c2.51-.64,5.01-1.319,7.7-2.034-.323-.106-.485-.169-.652-.214-2.353-.63-4.705-1.269-7.065-1.876a1.039,1.039,0,0,1-.841-.652Z" transform="translate(-899.032 -1051.994)" fill="#070606"/>
      <path id="Path_97" data-name="Path 97" d="M919.789,1086.194a5.472,5.472,0,0,1-.094.68q-1.267,4.773-2.545,9.543c-.019.069-.053.133-.133.332-.4-1.463-.763-2.8-1.122-4.135q-.795-2.963-1.577-5.93a2.372,2.372,0,0,1-.025-.5v0c.469.139.582.52.692.94.614,2.352,1.247,4.7,1.875,7.048.037.138.09.272.191.576.435-1.623.823-3.077,1.211-4.531.281-1.052.583-2.1.83-3.16a.993.993,0,0,1,.7-.862Z" transform="translate(-896.162 -1054.861)" fill="#070606"/>
      <path id="Path_98" data-name="Path 98" d="M908.045,1082.9c.4.154.46.432.406.839-.227,1.679-.417,3.363-.635,5.158.228-.156.4-.262.553-.38,1.075-.808,2.153-1.614,3.22-2.434.43-.33.836-.685,1.438-.484l0,0L907.2,1090l.859-7.118Z" transform="translate(-894.895 -1054.272)" fill="#070606"/>
      <path id="Path_99" data-name="Path 99" d="M927.043,1063.888l7.088-.829-4.37,5.83h0c-.222-.6.144-1.005.471-1.435.815-1.066,1.616-2.144,2.42-3.219.125-.166.239-.34.4-.573-1.79.217-3.488.412-5.183.637-.407.054-.675-.033-.816-.428Z" transform="translate(-898.44 -1050.73)" fill="#070606"/>
      <path id="Path_100" data-name="Path 100" d="M906.7,1081.827l-7.116.818,4.236-5.658c.295.306.213.541,0,.822-.948,1.239-1.878,2.49-2.811,3.738-.1.135-.188.279-.334.5,1.77-.215,3.449-.4,5.123-.632.43-.059.722.02.892.43Z" transform="translate(-893.534 -1053.219)" fill="#070606"/>
      <path id="Path_101" data-name="Path 101" d="M927.1,1081.848c.058-.464.346-.512.747-.461,1.7.217,3.4.412,5.224.63-.719-.966-1.374-1.848-2.032-2.729-.28-.375-.543-.766-.853-1.115a1.358,1.358,0,0,1-.417-1.344h0l4.395,5.8c-1.915-.227-3.687-.439-5.46-.645-.538-.062-1.079-.1-1.62-.154Z" transform="translate(-898.448 -1053.19)" fill="#070606"/>
      <path id="Path_102" data-name="Path 102" d="M926,1082.922c.125,1.2.242,2.4.377,3.592.125,1.118.269,2.233.421,3.5l-5.808-4.4v0a1.438,1.438,0,0,1,1.337.418c1.234.965,2.5,1.883,3.853,2.889-.218-1.825-.415-3.534-.633-5.241-.053-.407.021-.681.471-.743Z" transform="translate(-897.358 -1054.279)" fill="#070606"/>
      <path id="Path_103" data-name="Path 103" d="M908.077,1062.567l-.89-7.15,5.688,4.25c-.327.311-.582.174-.862-.037-1.276-.965-2.558-1.919-3.839-2.875-.09-.067-.185-.13-.358-.25.172,1.455.333,2.818.5,4.18a6.192,6.192,0,0,0,.11.869.8.8,0,0,1-.362,1Z" transform="translate(-894.893 -1049.365)" fill="#070606"/>
      <path id="Path_104" data-name="Path 104" d="M917.238,1053.066v5.834l-1.657.145,1.589-5.991Z" transform="translate(-896.392 -1048.943)" fill="#070606"/>
      <path id="Path_105" data-name="Path 105" d="M936.681,1073.089h-5.8l-.137-1.667L936.7,1073Z" transform="translate(-899.103 -1052.224)" fill="#070606"/>
      <path id="Path_106" data-name="Path 106" d="M903.1,1073.535l.135,1.629-5.9-1.563,0-.066Z" transform="translate(-893.132 -1052.602)" fill="#070606"/>
      <path id="Path_107" data-name="Path 107" d="M919.321,1086.594l-1.583,5.937-.067-.009v-5.785Z" transform="translate(-896.766 -1054.935)" fill="#070606"/>
      <path id="Path_108" data-name="Path 108" d="M929.128,1079.781l.722-1.518,2.428,3.235-.068.078Z" transform="translate(-898.813 -1053.447)" fill="#070606"/>
      <path id="Path_109" data-name="Path 109" d="M905.444,1066.441l-.725,1.512-2.408-3.206.061-.088Z" transform="translate(-894.021 -1051.016)" fill="#070606"/>
      <path id="Path_110" data-name="Path 110" d="M906.4,1081.5l-3.979.49-.035-.09,3.069-1.791Z" transform="translate(-894.035 -1053.776)" fill="#070606"/>
      <path id="Path_111" data-name="Path 111" d="M908.78,1058.184l1.793,3.105-1.379.949-.5-4Z" transform="translate(-895.163 -1049.859)" fill="#070606"/>
      <path id="Path_112" data-name="Path 112" d="M928.925,1066.427l-.939-1.387,3.959-.5.052.088Z" transform="translate(-898.609 -1050.996)" fill="#070606"/>
      <path id="Path_113" data-name="Path 113" d="M925.654,1083.825l.489,3.993-.1.03-1.767-3.074Z" transform="translate(-897.946 -1054.44)" fill="#070606"/>
      <path id="Path_114" data-name="Path 114" d="M922.428,1060.561l3.24-2.43.067.054-1.786,3.1Z" transform="translate(-897.616 -1049.849)" fill="#070606"/>
      <path id="Path_115" data-name="Path 115" d="M910.586,1084.976l1.515.723-3.23,2.45-.076-.049Z" transform="translate(-895.18 -1054.646)" fill="#070606"/>
      <path id="Path_116" data-name="Path 116" d="M922.863,1072.675a2.167,2.167,0,0,1-1.951.119,4.369,4.369,0,0,0-3.247-.01,4.1,4.1,0,0,1-3.028-.007,4.178,4.178,0,0,0-3.135-.006,2.346,2.346,0,0,1-2.057-.109l.289-.506c.07-.016.11-.038.143-.031,1.492.326,1.385.047,1.361-1.022-.033-1.481-.02-2.963-.023-4.444,0-.151.021-.3.035-.509.665,0,1.305-.021,1.941.017.131.007.247.236.379.373,1.356-.84,2.02-.809,3.387.194,1.267-.963,2.3-1.037,3.289-.244a2.346,2.346,0,0,1,.887,1.947c0,.994,0,1.988,0,2.983,0,.78.2.945.968.8C922.6,1072.118,922.6,1072.118,922.863,1072.675Zm-7.786-.558c0-.664,0-1.266,0-1.866,0-.564.023-1.131-.018-1.692a.748.748,0,0,0-.8-.757.706.706,0,0,0-.768.716c-.03,1.065-.01,2.131-.01,3.188Zm3.783-.414c0-1.052.013-2.08-.006-3.106a.746.746,0,0,0-.72-.779.724.724,0,0,0-.847.7c-.044,1.192-.015,2.386-.015,3.613Z" transform="translate(-895.296 -1051.246)" fill="#070606"/>
      <path id="Path_117" data-name="Path 117" d="M911.918,1078.331c.581.1,1.188-.264,1.689.315a.63.63,0,0,0,.548.088,1.941,1.941,0,0,0,.513-.379c-.13-.15-.231-.372-.394-.436a5.656,5.656,0,0,0-1.021-.24c-.9-.171-1.434-.689-1.452-1.425s.476-1.275,1.371-1.509a3.5,3.5,0,0,1,2.233.166,1.318,1.318,0,0,1,.86,1.234c-.635-.089-1.262.246-1.808-.338-.115-.122-.508-.027-.755.037-.089.023-.211.32-.17.37a1.39,1.39,0,0,0,.548.436c.4.145.832.2,1.243.324a1.311,1.311,0,0,1,.99,1.233,1.387,1.387,0,0,1-.854,1.342,3.453,3.453,0,0,1-2.677.061A1.276,1.276,0,0,1,911.918,1078.331Z" transform="translate(-895.717 -1052.798)" fill="#070606"/>
      <path id="Path_118" data-name="Path 118" d="M922.366,1077.788a2.256,2.256,0,0,1-2.177,2.052,2.17,2.17,0,0,1-2.152-1.978c-.289-1.706.463-2.953,1.922-3.183a2.163,2.163,0,0,1,2.4,2.043,8.579,8.579,0,0,1-1.087-.015.754.754,0,0,1-.411-.315c-.445-.6-1.028-.569-1.376.084a1.732,1.732,0,0,0,.169,1.767c.288.321.735.464.949.094C921.052,1077.568,921.7,1077.817,922.366,1077.788Z" transform="translate(-896.82 -1052.802)" fill="#070606"/>
      <path id="Path_119" data-name="Path 119" d="M912.218,1083.5c-.241.158-.384.322-.522.319-.107,0-.315-.249-.29-.326a.567.567,0,0,1,.362-.324C911.862,1083.152,912,1083.336,912.218,1083.5Z" transform="translate(-895.646 -1054.324)" fill="#070606"/>
      <path id="Path_120" data-name="Path 120" d="M929.725,1073.431c-.261.149-.41.3-.557.3-.1,0-.276-.221-.271-.337s.2-.314.3-.306C929.345,1073.1,929.481,1073.26,929.725,1073.431Z" transform="translate(-898.772 -1052.521)" fill="#070606"/>
      <path id="Path_121" data-name="Path 121" d="M906.383,1073.389c-.228.164-.361.333-.5.335-.11,0-.223-.2-.335-.307.121-.121.225-.3.368-.34C906.01,1073.05,906.16,1073.23,906.383,1073.389Z" transform="translate(-894.6 -1052.519)" fill="#070606"/>
      <path id="Path_122" data-name="Path 122" d="M923.35,1084.008c-.138-.265-.279-.416-.27-.559a.426.426,0,0,1,.331-.263c.118.01.318.206.307.3C923.7,1083.634,923.536,1083.763,923.35,1084.008Z" transform="translate(-897.732 -1054.326)" fill="#070606"/>
      <path id="Path_123" data-name="Path 123" d="M911.77,1062.745c.141.271.285.425.273.567a.431.431,0,0,1-.338.265c-.113-.007-.31-.208-.3-.306C911.422,1063.125,911.586,1063,911.77,1062.745Z" transform="translate(-895.646 -1050.674)" fill="#070606"/>
      <path id="Path_124" data-name="Path 124" d="M923.9,1063.317c-.259.157-.4.309-.547.309-.1,0-.288-.211-.283-.319s.19-.333.291-.329C923.507,1062.982,923.647,1063.145,923.9,1063.317Z" transform="translate(-897.731 -1050.715)" fill="#070606"/>
    </g>
  </g>
</svg>
