<svg xmlns="http://www.w3.org/2000/svg" width="56.672" height="20.457" viewBox="0 0 56.672 20.457">
  <g id="norwegian-logo" opacity="0.65">
    <g id="Group_200" data-name="Group 200">
      <path id="Path_130" data-name="Path 130" d="M1051.5,1077.853c-1.12-1.36-2.171-2.646-3.231-3.925q-3.484-4.2-6.976-8.4a6.162,6.162,0,0,0-5.874-2.2c-.609.076-1.21.225-1.858.29a4.59,4.59,0,0,1,.392-.246,22.346,22.346,0,0,1,7.105-2.141,10.367,10.367,0,0,1,5.188.455,7.5,7.5,0,0,1,3.232,2.282q5.488,6.693,11.021,13.35c.068.081.147.154.265.278.627-.737,1.247-1.447,1.847-2.174,3.217-3.9,6.446-7.789,9.637-11.711a7,7,0,0,1,4.648-2.48,16.632,16.632,0,0,1,7.614.931c1.045.338,2.046.81,3.064,1.228a.81.81,0,0,1,.339.279c-.569-.109-1.134-.242-1.707-.323a6.2,6.2,0,0,0-6.04,2.231c-3.355,4.066-6.712,8.131-10.139,12.283a3.437,3.437,0,0,0,2.769-.843,22.508,22.508,0,0,0,1.728-1.953c1.769-2.13,3.548-4.251,5.276-6.414a4.336,4.336,0,0,1,3.383-1.6,11.974,11.974,0,0,1,5.836,1.382c.034.016.057.058.078.08-.521-.064-1.038-.16-1.56-.184a3.5,3.5,0,0,0-2.981,1.353c-2.1,2.542-4.219,5.07-6.292,7.633a4.907,4.907,0,0,1-4.65,1.8,26.163,26.163,0,0,1-3.537-.807c-.254-.065-.4-.063-.545.153-1.547,2.217-3.856,2.893-6.369,3.03a47.821,47.821,0,0,1-5.169-.01,7.388,7.388,0,0,1-4.615-1.5,12.221,12.221,0,0,1-1.347-1.481.468.468,0,0,0-.622-.165,11.949,11.949,0,0,1-4.278.834,4.721,4.721,0,0,1-3.847-1.832c-1.958-2.475-4.044-4.85-6.012-7.318a4.038,4.038,0,0,0-4.633-1.487.2.2,0,0,1-.214-.06c.4-.18.8-.385,1.217-.536a12.021,12.021,0,0,1,4.264-.89,4.922,4.922,0,0,1,4.01,1.821c2.07,2.567,4.19,5.093,6.291,7.634A3.617,3.617,0,0,0,1051.5,1077.853Z" transform="translate(-1032.424 -1061.095)"/>
    </g>
  </g>
</svg>
