<svg xmlns="http://www.w3.org/2000/svg" width="56.457" height="39.423" viewBox="0 0 56.457 39.423">
  <g id="oceania-logo" opacity="0.65">
    <g id="Group_198" data-name="Group 198">
      <path id="Path_127" data-name="Path 127" d="M1232.184,1071.827a10.244,10.244,0,0,0-.766,2.827,19.946,19.946,0,0,1-18.689,14.312,19.326,19.326,0,0,1-18.553-13.135c-.05-.148-.084-.3-.125-.452,1.465-.2,2.865-.4,4.269-.575.539-.066.915-.07,1.091.728.8,3.6,2.313,6.842,5.383,9.115a12.261,12.261,0,0,0,6.539,2.347,12.69,12.69,0,0,0,9.391-2.737,14.806,14.806,0,0,0,5.059-9.186c1.037-5.74.7-11.4-1.961-16.712-2.428-4.851-6.587-6.871-11.871-6.691a11.852,11.852,0,0,0-11.053,7.237,16.09,16.09,0,0,0-1.308,3.79c-.149.772-.448,1.127-1.381.884a10.192,10.192,0,0,0-3.376-.324c-.922.075-.974-.345-.69-1.057,2.36-5.9,6.531-10.032,12.62-11.751,5.952-1.68,11.789-1.108,17.019,2.616a19.485,19.485,0,0,1,8.134,12.841c.041.224-.081.526.267.62Z" transform="translate(-1175.727 -1049.549)" fill="#070606"/>
      <path id="Path_128" data-name="Path 128" d="M1171.754,1069.876c5.38,1.261,10.475-.275,15.637-1.429a15.828,15.828,0,0,1,11.495,1.4c.439.245,1.054.407,1.009,1.219-5.17-1.264-10.028.408-14.982,1.386C1180.254,1073.369,1175.728,1073.01,1171.754,1069.876Z" transform="translate(-1171.754 -1052.839)" fill="#070606"/>
      <path id="Path_129" data-name="Path 129" d="M1183.307,1074.685c5.007,1.137,9.551.374,14.087-.856a18.218,18.218,0,0,1,12.212.419,5.322,5.322,0,0,1,2.45,1.791,24.175,24.175,0,0,0-5.8-.411,54.684,54.684,0,0,0-8.017,1.512,19.059,19.059,0,0,1-11.633-.378A10,10,0,0,1,1183.307,1074.685Z" transform="translate(-1173.818 -1053.735)" fill="#070606"/>
    </g>
  </g>
</svg>
