<?xml version="1.0" encoding="UTF-8"?>
<svg id="Layer_2" data-name="Layer 2" xmlns="http://www.w3.org/2000/svg" viewBox="0 0 24.28 41.71">
  <defs>
    <style>
      .cls-1 {
        fill: #f60;
      }
    </style>
  </defs>
  <g id="Layer_1-2" data-name="Layer 1">
    <g id="zFsf7M.tif">
      <path class="cls-1" d="M18.44,7.78c-.02,2.07-.36,4.1,.35,6.05,.38,1.05,.87,2.07,1.44,3.02,.65,1.08,1.44,2.08,2.19,3.1,.11,.15,.3,.28,.47,.34,.84,.32,1.38,1,1.38,1.91,0,1.77-.02,3.55-.05,5.32-.01,.59-.37,.88-1.06,.88-1.96,0-3.93-.03-5.89-.04-1.41,0-2.82-.01-4.23-.02-.15,0-.31,0-.51,0,0,.22,0,.39,0,.56-.04,3.85-.08,7.7-.12,11.54,0,.05,0,.1,0,.14-.01,.7-.34,1.11-.9,1.11-.56,0-.89-.42-.88-1.11,.05-3.83,.1-7.66,.14-11.5,0-.23,0-.47,0-.8-.97,0-1.9,0-2.82,0-2.25,0-4.5-.02-6.75-.03-.94,0-1.22-.29-1.21-1.23,.02-1.63,.04-3.26,.05-4.89,0-.94,.46-1.58,1.31-1.96,.18-.08,.35-.21,.47-.37,.76-1.01,1.51-2.03,2.25-3.06,1.32-1.84,1.99-3.9,1.99-6.17,0-.97,0-1.93,0-3-.33,0-.62,0-.91,0-.67-.02-.99-.34-.99-1,0-.78,0-1.55,.01-2.33C4.24,1.79,6.08-.02,8.54,0c2.5,.02,5,.05,7.5,.11,2.58,.06,4.3,1.86,4.31,4.44,0,.73,0,1.46-.02,2.19-.01,.75-.33,1.05-1.09,1.05-.25,0-.5,0-.8,0Zm1.93,12.34c-1.29-1.81-2.65-3.56-3.29-5.73-.65-2.18-.46-4.41-.4-6.69H7.8c.04,2.22,.16,4.45-.53,6.62-.68,2.17-2.09,3.89-3.47,5.8H20.37Zm2.14,6.52c0-1.42-.01-2.78,0-4.13,0-.42-.13-.54-.54-.54-6.54-.04-13.08-.09-19.62-.15-.45,0-.57,.17-.56,.59,.01,1.22,0,2.44-.01,3.66,0,.14,.02,.27,.03,.44,6.9,.05,13.75,.1,20.7,.15ZM5.98,5.83c4.19,.06,8.37,.12,12.62,.19,0-.6,.01-1.15,0-1.7-.04-1.33-1.04-2.41-2.37-2.44-2.63-.07-5.25-.1-7.88-.11-1.16,0-2.2,.9-2.35,2.04-.08,.65-.01,1.32-.01,2.03Z"/>
    </g>
  </g>
</svg>