<svg id="royal-caribbean-logo" xmlns="http://www.w3.org/2000/svg" width="33.614" height="36.959" viewBox="0 0 33.614 36.959">
  <path id="Path_91" data-name="Path 91" d="M466.464,1090.958c-.088-.247-.338-.238-.523-.308q-6.123-2.318-12.256-4.612a.788.788,0,0,1-.583-.738c-.413-3.382-.84-6.763-1.262-10.144-.015-.115-.016-.231-.034-.477l5.8,4.046c-.052.2-.25.224-.381.313a5.458,5.458,0,0,0-1.239,1.046c-.485.6-1.059,1.226-.684,2.075a2.369,2.369,0,0,0,2.191,1.476c1.761.056,3.525.039,5.288.069.329.005.427-.1.426-.428q-.012-5.846.011-11.691c0-.429-.208-.4-.5-.4-3.507,0-7.015-.007-10.522.015-.472,0-.686-.084-.708-.6-.039-.909-.14-1.816-.232-2.721-.024-.232.039-.326.271-.307.116.009.232,0,.349,0q14.854,0,29.707-.014c.54,0,.642.149.578.64-.108.825-.185,1.657-.22,2.489-.017.406-.146.511-.545.509-3.507-.015-7.015,0-10.522-.022-.515,0-.638.125-.636.636q.036,5.641,0,11.284c0,.472.1.63.6.614,1.607-.049,3.215-.047,4.823-.062a2.393,2.393,0,0,0,.97-.137c1.493-.66,2.242-1.747.951-3.3a7.835,7.835,0,0,0-1.788-1.45l5.844-4.085c-.122,1.054-.221,1.976-.337,2.9-.329,2.613-.67,5.223-.986,7.837a.586.586,0,0,1-.437.573q-6.294,2.358-12.574,4.752c-.2.077-.46.021-.616.225Z" transform="translate(-449.945 -1053.998)" fill="#ec6f2d"/>
  <path id="Path_92" data-name="Path 92" d="M483.274,1052.287a9.045,9.045,0,0,0-.332,2.426c-.268,2.5-.5,5.013-.726,7.521-.033.359-.173.435-.51.434q-15.291-.012-30.582-.007c-.206,0-.4.052-.436-.287-.329-3.491-.676-6.979-1.028-10.578.777.545,1.49,1.032,2.19,1.536,1.3.939,2.595,1.9,3.907,2.824.336.237.309.393.049.667-.652.688-1.277,1.4-1.951,2.15,1.164.8,2.3,1.576,3.441,2.361a.447.447,0,0,0,.484-.006c1.588-.707,3.172-1.421,4.767-2.109.345-.149.336-.279.126-.537-.525-.647-1.021-1.317-1.551-1.959-.222-.269-.263-.443.022-.712,1.676-1.583,3.336-3.183,5-4.783.191-.185.319-.273.563-.036q2.5,2.429,5.037,4.824c.29.273.231.442.015.706-.527.644-1.02,1.316-1.543,1.965-.2.25-.248.374.116.529,1.581.675,3.151,1.375,4.715,2.087a.613.613,0,0,0,.687-.071c.985-.684,1.972-1.368,2.976-2.023.312-.2.27-.322.046-.556-.563-.587-1.088-1.211-1.651-1.8-.276-.288-.3-.469.057-.721,1.832-1.3,3.645-2.622,5.471-3.93.184-.131.366-.38.646-.15Z" transform="translate(-449.66 -1051.049)" fill="#ec6f2d"/>
</svg>
